<?xml version="1.0" standalone="no"?>
<!DOCTYPE svg PUBLIC "-//W3C//DTD SVG 20010904//EN"
 "http://www.w3.org/TR/2001/REC-SVG-20010904/DTD/svg10.dtd">
<svg version="1.0" xmlns="http://www.w3.org/2000/svg"
 width="116.000000pt" height="116.000000pt" viewBox="0 0 116.000000 116.000000"
 preserveAspectRatio="xMidYMid meet">
<metadata>
Created by potrace 1.11, written by Peter Selinger 2001-2013
</metadata>
<g transform="translate(0.000000,116.000000) scale(0.100000,-0.100000)"
fill="#000000" stroke="none">
<path d="M0 580 l0 -580 580 0 580 0 0 580 0 580 -580 0 -580 0 0 -580z m791
506 c176 -53 284 -178 296 -342 7 -93 -10 -183 -49 -256 -53 -100 -120 -136
-277 -149 -61 -5 -112 -14 -125 -23 -28 -18 -106 -97 -106 -107 0 -4 -6 -9
-14 -12 -16 -6 -13 3 44 173 l35 105 55 8 c147 20 240 136 228 287 l-3 45
-222 5 c-122 3 -225 9 -230 13 -4 5 -9 27 -9 50 -3 65 -3 67 -19 67 -21 0 -71
-55 -95 -104 -17 -37 -20 -62 -20 -185 0 -141 0 -143 -32 -199 -83 -151 -150
-268 -159 -277 -5 -5 -9 117 -9 313 0 289 2 327 19 371 36 96 111 169 214 207
56 21 79 23 247 23 131 1 198 -3 231 -13z m-213 -357 c-2 -6 -8 -10 -13 -10
-5 0 -11 4 -13 10 -2 6 4 11 13 11 9 0 15 -5 13 -11z"/>
</g>
</svg>
